<?xml version="1.0" encoding="UTF-8" standalone="no"?>
<svg
   xmlns:dc="http://purl.org/dc/elements/1.1/"
   xmlns:cc="http://creativecommons.org/ns#"
   xmlns:rdf="http://www.w3.org/1999/02/22-rdf-syntax-ns#"
   xmlns:svg="http://www.w3.org/2000/svg"
   xmlns="http://www.w3.org/2000/svg"
   xmlns:sodipodi="http://sodipodi.sourceforge.net/DTD/sodipodi-0.dtd"
   xmlns:inkscape="http://www.inkscape.org/namespaces/inkscape"
   viewBox="0 0 545.57505 79.999963"
   height="79.999962"
   width="545.57507"
   xml:space="preserve"
   version="1.1"
   id="svg4272"
   inkscape:version="0.92.4 (5da689c313, 2019-01-14)"
   sodipodi:docname="vdue-logo-slogan-pfad.svg"><sodipodi:namedview
   pagecolor="#ffffff"
   bordercolor="#666666"
   borderopacity="1"
   objecttolerance="10"
   gridtolerance="10"
   guidetolerance="10"
   inkscape:pageopacity="0"
   inkscape:pageshadow="2"
   inkscape:window-width="1920"
   inkscape:window-height="1017"
   id="namedview4267"
   showgrid="false"
   inkscape:zoom="2.3740137"
   inkscape:cx="286.85596"
   inkscape:cy="12.408606"
   inkscape:window-x="-8"
   inkscape:window-y="-8"
   inkscape:window-maximized="1"
   inkscape:current-layer="svg4272"
   showborder="true"
   fit-margin-top="0"
   fit-margin-left="0"
   fit-margin-right="0"
   fit-margin-bottom="0"
   showguides="true"
   inkscape:guide-bbox="true" /><metadata
   id="metadata4278"><rdf:RDF><cc:Work
       rdf:about=""><dc:format>image/svg+xml</dc:format><dc:type
         rdf:resource="http://purl.org/dc/dcmitype/StillImage" /><dc:title></dc:title></cc:Work></rdf:RDF></metadata><defs
   id="defs4276"><clipPath
     id="clipPath4334"
     clipPathUnits="userSpaceOnUse"><path
       id="path4336"
       d="M 207,192.281 H 635.854 V 403.848 H 207 Z"
       inkscape:connector-curvature="0" /></clipPath><clipPath
     id="clipPath4348"
     clipPathUnits="userSpaceOnUse"><path
       id="path4350"
       d="M 207,192.281 H 635.854 V 403.848 H 207 Z"
       inkscape:connector-curvature="0" /></clipPath><filter
     inkscape:collect="always"
     style="color-interpolation-filters:sRGB"
     id="filter5345"
     x="-0.0032011531"
     width="1.0064023"
     y="-0.047742024"
     height="1.095484"><feGaussianBlur
       inkscape:collect="always"
       stdDeviation="0.50286865"
       id="feGaussianBlur5347" /></filter></defs><path
   id="path4391"
   style="fill:#0088cc;fill-opacity:1;fill-rule:nonzero;stroke:none"
   d="m 45.574749,10.158709 h 71.431291 v 1.58625 H 45.574749 Z"
   inkscape:connector-curvature="0" /><path
   id="path4393"
   style="fill:#0088cc;fill-opacity:1;fill-rule:nonzero;stroke:none"
   d="m 45.574749,13.126269 h 71.431291 v 1.58587 H 45.574749 Z"
   inkscape:connector-curvature="0" /><path
   id="path4395"
   style="fill:#0088cc;fill-opacity:1;fill-rule:nonzero;stroke:none"
   d="m 45.574749,16.093829 h 71.431291 v 1.58625 H 45.574749 Z"
   inkscape:connector-curvature="0" /><path
   id="path4397"
   style="fill:#292929;fill-opacity:1;fill-rule:nonzero;stroke:none"
   d="m 45.574749,19.061389 h 71.431291 v 1.58625 H 45.574749 Z"
   inkscape:connector-curvature="0" /><path
   id="path4399"
   style="fill:#0088cc;fill-opacity:1;fill-rule:nonzero;stroke:none"
   d="m 45.574749,22.028949 h 71.431291 v 1.58587 H 45.574749 Z"
   inkscape:connector-curvature="0" /><path
   id="path4401"
   style="fill:#0088cc;fill-opacity:1;fill-rule:nonzero;stroke:none"
   d="m 45.574749,24.996879 h 71.431291 v 1.58626 H 45.574749 Z"
   inkscape:connector-curvature="0" /><path
   id="path4403"
   style="fill:#0088cc;fill-opacity:1;fill-rule:nonzero;stroke:none"
   d="m 45.574749,27.964059 h 71.431291 v 1.58626 H 45.574749 Z"
   inkscape:connector-curvature="0" /><path
   id="path4405"
   style="fill:#0088cc;fill-opacity:1;fill-rule:nonzero;stroke:none"
   d="m 45.574749,30.931999 h 71.431291 v 1.58588 H 45.574749 Z"
   inkscape:connector-curvature="0" /><path
   id="path4407"
   style="fill:#0088cc;fill-opacity:1;fill-rule:nonzero;stroke:none"
   d="m 45.574749,33.899559 h 71.431291 v 1.58625 H 45.574749 Z"
   inkscape:connector-curvature="0" /><path
   id="path4409"
   style="fill:#0088cc;fill-opacity:1;fill-rule:nonzero;stroke:none"
   d="m 45.574749,36.866739 h 71.431291 v 1.58625 H 45.574749 Z"
   inkscape:connector-curvature="0" /><path
   id="path4411"
   style="fill:#0088cc;fill-opacity:1;fill-rule:nonzero;stroke:none"
   d="m 45.574749,39.834679 h 71.431291 v 1.58587 H 45.574749 Z"
   inkscape:connector-curvature="0" /><path
   id="path4413"
   style="fill:#0088cc;fill-opacity:1;fill-rule:nonzero;stroke:none"
   d="m 45.574749,42.802239 h 71.431291 v 1.58625 H 45.574749 Z"
   inkscape:connector-curvature="0" /><path
   id="path4415"
   style="fill:#0088cc;fill-opacity:1;fill-rule:nonzero;stroke:none"
   d="m 45.574749,45.769419 h 71.431291 v 1.58625 H 45.574749 Z"
   inkscape:connector-curvature="0" /><path
   id="path4417"
   style="fill:#0088cc;fill-opacity:1;fill-rule:nonzero;stroke:none"
   d="m 45.574749,48.737739 h 71.431291 v 1.58587 H 45.574749 Z"
   inkscape:connector-curvature="0" /><path
   id="path4419"
   style="fill:#0088cc;fill-opacity:1;fill-rule:nonzero;stroke:none"
   d="m 45.574749,51.705299 h 71.431291 v 1.58625 H 45.574749 Z"
   inkscape:connector-curvature="0" /><path
   id="path4421"
   style="fill:#0088cc;fill-opacity:1;fill-rule:nonzero;stroke:none"
   d="m 45.574749,54.672479 h 71.431291 v 1.58625 H 45.574749 Z"
   inkscape:connector-curvature="0" /><path
   id="path4423"
   style="fill:#0088cc;fill-opacity:1;fill-rule:nonzero;stroke:none"
   d="m 45.574749,57.640409 h 71.431291 v 1.58626 H 45.574749 Z"
   inkscape:connector-curvature="0" /><path
   id="path4425"
   style="fill:#0088cc;fill-opacity:1;fill-rule:nonzero;stroke:none"
   d="m 45.574749,60.607969 h 71.431291 v 1.58626 H 45.574749 Z"
   inkscape:connector-curvature="0" /><path
   id="path4427"
   style="fill:#0088cc;fill-opacity:1;fill-rule:nonzero;stroke:none"
   d="m 45.574749,63.575529 h 71.431291 v 1.58588 H 45.574749 Z"
   inkscape:connector-curvature="0" /><path
   id="path4429"
   style="fill:#0088cc;fill-opacity:1;fill-rule:nonzero;stroke:none"
   d="m 45.574749,66.543089 h 71.431291 v 1.58625 H 45.574749 Z"
   inkscape:connector-curvature="0" /><path
   id="path4431"
   style="fill:#0088cc;fill-opacity:1;fill-rule:nonzero;stroke:none"
   d="m 45.574749,69.510269 h 71.431291 v 1.58626 H 45.574749 Z"
   inkscape:connector-curvature="0" /><path
   id="path4433"
   style="fill:#0088cc;fill-opacity:1;fill-rule:nonzero;stroke:none"
   d="m 45.574749,72.478209 h 71.431291 v 1.58588 H 45.574749 Z"
   inkscape:connector-curvature="0" /><path
   id="path4435"
   style="fill:#0088cc;fill-opacity:1;fill-rule:nonzero;stroke:none"
   d="m 45.574749,75.446149 h 72.109871 v 1.58625 H 45.574749 Z"
   inkscape:connector-curvature="0" /><path
   id="path4437"
   style="fill:#0088cc;fill-opacity:1;fill-rule:nonzero;stroke:none"
   d="m 45.574749,79.999959 h 71.958361 v -1.58625 H 45.574749 Z"
   inkscape:connector-curvature="0" /><g
   transform="matrix(0.37812938,0,0,-0.37812938,-78.073931,152.70672)"
   style="fill:#006699;fill-opacity:1"
   id="g4439"><g
     style="fill:#006699;fill-opacity:1"
     clip-path="url(#clipPath4334)"
     id="g4441"><g
       style="fill:#006699;fill-opacity:1"
       transform="translate(596.584,278.1768)"
       id="g4443"><path
         id="path4445"
         style="fill:#006699;fill-opacity:1;fill-rule:nonzero;stroke:none"
         d="m 0,0 v -10.964 -7.489 c 0,-7.736 -0.523,-13.775 -1.564,-18.113 -1.042,-4.338 -2.694,-8.316 -4.953,-11.933 -4.608,-7.374 -12.04,-12.997 -22.294,-16.866 -10.254,-3.868 -22.814,-5.803 -37.676,-5.803 -11.903,0 -22.416,1.248 -31.541,3.739 -9.126,2.495 -16.341,6.059 -21.642,10.69 -5.041,4.406 -8.668,9.686 -10.886,15.835 -2.212,6.147 -3.321,14.787 -3.321,25.923 V 0 53.932 c 0,4.356 -1.065,7.564 -3.197,9.632 -2.129,2.064 -5.502,3.098 -10.114,3.098 -2.433,0 -5.414,-0.221 -8.935,-0.668 -3.524,-0.446 -5.806,-0.667 -6.852,-0.667 -2.951,0 -5.347,0.744 -7.171,2.232 -1.832,1.487 -2.743,3.436 -2.743,5.844 0,2.762 0.934,4.814 2.803,6.161 1.871,1.346 4.67,2.018 8.408,2.018 1.398,0 6.025,-0.221 13.891,-0.668 7.867,-0.446 15.103,-0.667 21.711,-0.667 6.089,0 13.279,0.221 21.584,0.667 8.302,0.447 13.582,0.668 15.841,0.668 4.264,0 7.632,-0.691 10.108,-2.072 2.48,-1.38 3.717,-3.276 3.717,-5.683 0,-2.549 -0.848,-4.601 -2.549,-6.162 -1.693,-1.56 -3.898,-2.338 -6.6,-2.338 -1.564,0 -3.785,0.221 -6.661,0.667 -2.872,0.447 -4.921,0.668 -6.137,0.668 -5.055,0 -8.581,-0.885 -10.587,-2.655 -1.999,-1.77 -3.007,-5.128 -3.007,-10.075 V -17.8 c 0,-13.673 3.312,-23.279 9.928,-28.811 6.615,-5.535 17.845,-8.305 33.693,-8.305 15.496,0 26.57,2.732 33.231,8.195 6.661,5.463 9.992,14.668 9.992,27.62 v 9.335 63.484 c 0,5.016 -0.981,8.427 -2.938,10.235 -1.961,1.805 -5.425,2.709 -10.392,2.709 -1.217,0 -3.266,-0.221 -6.137,-0.668 -2.877,-0.446 -5.098,-0.667 -6.665,-0.667 -2.785,0 -5.052,0.763 -6.791,2.285 -1.743,1.522 -2.617,3.525 -2.617,6.001 0,2.411 1.282,4.337 3.848,5.791 2.569,1.453 5.979,2.178 10.236,2.178 2.262,0 7.5,-0.221 15.717,-0.668 8.215,-0.446 15.367,-0.667 21.455,-0.667 6.608,0 13.842,0.221 21.708,0.667 7.87,0.447 12.497,0.668 13.89,0.668 3.738,0 6.589,-0.709 8.541,-2.125 1.962,-1.415 2.939,-3.506 2.939,-6.268 0,-2.339 -0.94,-4.23 -2.808,-5.684 -1.87,-1.454 -4.326,-2.178 -7.371,-2.178 -1.041,0 -3.326,0.221 -6.848,0.667 -3.524,0.447 -6.505,0.668 -8.938,0.668 -3.83,0 -7.005,-0.977 -9.523,-2.934 C 1.258,61.775 0,59.357 0,56.48 0,56.259 0.041,55.889 0.129,55.369 0.213,54.855 0.258,54.374 0.258,53.932 Z m -56.656,113.478 c 0,3.266 1.457,6.116 4.376,8.546 2.915,2.43 6.379,3.647 10.384,3.647 4.005,0 7.447,-1.198 10.322,-3.594 2.873,-2.396 4.311,-5.261 4.311,-8.599 0,-3.628 -1.373,-6.588 -4.116,-8.873 -2.742,-2.285 -6.248,-3.43 -10.517,-3.43 -4.266,0 -7.797,1.164 -10.583,3.483 -2.785,2.324 -4.177,5.261 -4.177,8.82 m -50.235,0 c 0,3.266 1.461,6.116 4.375,8.546 2.915,2.43 6.333,3.647 10.255,3.647 4.093,0 7.576,-1.198 10.453,-3.594 2.872,-2.396 4.312,-5.261 4.312,-8.599 0,-3.628 -1.375,-6.588 -4.117,-8.873 -2.743,-2.285 -6.291,-3.43 -10.648,-3.43 -4.264,0 -7.774,1.145 -10.513,3.43 -2.747,2.285 -4.117,5.245 -4.117,8.873"
         inkscape:connector-curvature="0" /></g></g></g><path
   id="path4447"
   style="fill:#0088cc;fill-opacity:1;fill-rule:nonzero;stroke:#0088cc;stroke-width:1.25;stroke-linecap:butt;stroke-linejoin:miter;stroke-miterlimit:3.86400008;stroke-dasharray:none;stroke-opacity:1"
   d="m 69.550799,16.549089 h 27.31833 v 6.5821 h -27.31833 z"
   inkscape:connector-curvature="0" /><g
   transform="matrix(0.37812938,0,0,-0.37812938,-78.073931,152.70672)"
   id="g4449"><g
     clip-path="url(#clipPath4348)"
     id="g4451"><g
       transform="translate(329.6113,222.1816)"
       id="g4453"><path
         id="path4455"
         style="fill:#292929;fill-opacity:1;fill-rule:nonzero;stroke:none"
         d="m 0,0 c -2.868,-6.143 -5.631,-10.167 -8.282,-12.081 -2.655,-1.912 -6.195,-2.869 -10.628,-2.869 -4.353,0 -7.768,0.957 -10.243,2.869 -2.476,1.914 -5.239,6.301 -8.283,13.16 L -84.13,108.218 c -2.259,5.519 -4.803,9.307 -7.63,11.36 -2.827,2.053 -6.676,3.078 -11.544,3.078 -0.351,0 -1.221,-0.22 -2.61,-0.667 -1.396,-0.445 -2.872,-0.668 -4.436,-0.668 -4.697,0 -7.912,0.618 -9.652,1.859 -1.739,1.235 -2.609,3.234 -2.609,5.993 0,2.193 1.152,4.066 3.456,5.624 2.304,1.556 5.066,2.334 8.282,2.334 0.611,0 5.547,-0.222 14.81,-0.667 9.262,-0.447 18.239,-0.668 26.933,-0.668 7.134,0 14.352,0.221 21.654,0.668 7.305,0.445 11.047,0.667 11.223,0.667 3.388,0 5.951,-0.705 7.691,-2.121 1.739,-1.415 2.609,-3.536 2.609,-6.367 0,-2.335 -0.976,-4.135 -2.933,-5.411 -1.958,-1.272 -4.803,-1.911 -8.55,-1.911 -1.217,0 -3.349,0.223 -6.393,0.668 -3.041,0.447 -5.521,0.667 -7.436,0.667 -2.521,0 -4.543,-0.671 -6.065,-2.01 -1.523,-1.342 -2.286,-3.096 -2.286,-5.26 0,-1.191 0.153,-2.422 0.458,-3.69 0.305,-1.265 0.717,-2.57 1.236,-3.914 l 40.049,-98.058 40.309,98.058 c 0.61,1.492 1.068,2.98 1.373,4.472 0.305,1.491 0.458,3.059 0.458,4.699 0,1.565 -0.847,2.907 -2.548,4.026 -1.694,1.122 -3.762,1.677 -6.196,1.677 -1.911,0 -4.41,-0.22 -7.5,-0.667 -3.09,-0.445 -5.242,-0.668 -6.455,-0.668 -3.654,0 -6.485,0.639 -8.485,1.911 -1.998,1.276 -2.998,3.076 -2.998,5.411 0,2.758 0.935,4.864 2.808,6.313 1.869,1.449 4.498,2.175 7.889,2.175 0.176,0 3.869,-0.222 11.086,-0.667 7.218,-0.447 14.394,-0.668 21.528,-0.668 8.61,0 17.591,0.221 26.937,0.668 9.35,0.445 14.375,0.667 15.069,0.667 3.216,0 5.978,-0.778 8.282,-2.334 2.305,-1.558 3.457,-3.431 3.457,-5.624 0,-2.121 -0.912,-3.959 -2.736,-5.517 -1.831,-1.555 -3.872,-2.335 -6.134,-2.335 -1.217,0 -2.869,0.223 -4.96,0.668 -2.083,0.447 -3.517,0.667 -4.303,0.667 -5.738,0 -9.999,-1.025 -12.78,-3.078 -2.785,-2.053 -5.394,-5.841 -7.828,-11.36 z"
         inkscape:connector-curvature="0" /></g><g
       transform="translate(444.2695,255.9814)"
       id="g4457"><path
         id="path4459"
         style="fill:#ffffff;fill-opacity:1;fill-rule:nonzero;stroke:none"
         d="m 0,0 v 14.031 c 0,11.677 -3.396,20.834 -10.187,27.468 -6.783,6.634 -16.053,9.953 -27.794,9.953 -12.53,0 -22.517,-3.861 -29.956,-11.575 -7.438,-7.717 -11.158,-18.166 -11.158,-31.351 0,-13.836 3.72,-24.503 11.158,-32.003 7.439,-7.496 17.946,-11.246 31.52,-11.246 12.527,0 21.729,2.785 27.604,8.354 C -2.938,-20.799 0,-12.009 0,0 m 0,67.018 v 4.462 c 0,8.12 -1.068,13.196 -3.201,15.225 -2.133,2.03 -6.33,3.045 -12.598,3.045 h -8.221 c -3.479,0 -6.003,0.53 -7.569,1.594 -1.564,1.065 -2.349,2.74 -2.349,5.017 0,2.358 0.916,4.185 2.747,5.478 1.83,1.29 4.486,1.938 7.973,1.938 0.343,0 1.939,-0.221 4.769,-0.667 2.83,-0.446 5.425,-0.668 7.774,-0.668 6.185,0 12.413,0.371 18.685,1.114 1.312,0.145 2.137,0.221 2.488,0.221 3.746,0 6.272,-0.622 7.576,-1.865 1.309,-1.248 1.961,-3.887 1.961,-7.931 V -18.487 c 0,-7.107 0.824,-11.407 2.477,-12.89 1.647,-1.489 5.031,-2.231 10.154,-2.231 h 6.901 c 3.82,0 6.64,-0.589 8.462,-1.764 1.824,-1.179 2.735,-2.941 2.735,-5.295 0,-2.285 -0.846,-3.94 -2.543,-4.975 -1.695,-1.034 -4.414,-1.548 -8.158,-1.548 -1.128,0 -3.676,0.22 -7.637,0.668 -3.959,0.442 -7.373,0.668 -10.242,0.668 -1.741,0 -4.438,-0.226 -8.092,-0.668 -3.654,-0.448 -6.482,-0.668 -8.485,-0.668 -2.525,0 -4.218,0.496 -5.088,1.491 -0.871,0.996 -1.306,3.346 -1.306,7.051 v 1.96 c -4.959,-3.986 -10.72,-7.031 -17.289,-9.133 -6.57,-2.102 -13.726,-3.151 -21.463,-3.151 -18.792,0 -33.689,5.017 -44.694,15.054 -11.004,10.037 -16.505,23.572 -16.505,40.606 0,18.262 5.326,32.773 15.986,43.54 10.654,10.761 24.986,16.14 42.993,16.14 9.308,0 17.312,-1.434 24.011,-4.3 C -11.049,59.2 -5.136,54.684 0,48.514 Z"
         inkscape:connector-curvature="0" /></g></g></g><path
   inkscape:connector-curvature="0"
   id="path4461"
   d="m 46.431139,16.623659 c -1.83794,-0.0707 -3.8349,1.22582 -3.86668,3.20458 -0.14558,1.83049 1.65358,3.02381 3.29635,3.16115 2.63144,0.33029 5.2603,-0.75181 7.86654,-0.20932 0.95319,0.23688 1.91101,1.00991 1.71995,2.10152 -0.20196,2.79809 -1.7262,5.27749 -2.65841,7.86984 -4.26003,10.21796 -8.35206,20.50581 -12.68229,30.69527 -0.30457,1.2428 -0.58198,0.23463 -0.85317,-0.47683 -4.89228,-11.96108 -9.81685,-23.9099 -14.62493,-35.9042 -0.19367,-1.20069 -0.68533,-2.83247 0.40241,-3.75232 1.61621,-1.31007 3.79787,-0.50204 5.65966,-0.42451 1.91743,0.10822 4.28733,0.39968 5.72095,-1.17793 0.82215,-1.14979 0.70074,-2.94755 -0.2374,-3.99725 -1.55268,-1.53176 -3.926,-0.96878 -5.87277,-0.97349 -8.32388,0.54144 -16.67693,0.24585 -25.0088794,-0.0864 -1.84609,-0.11954 -4.0928,0.29817 -5.01574,2.09865 -0.70624,1.48188 -0.0319,3.60276 1.6942,3.96309 1.89944,0.49494 3.8909,0.27011 5.77716,-0.14533 2.17607,-0.0357 4.4267494,0.9357 5.5316494,2.8838 1.50615,2.82677 2.64048,5.86014 3.99161,8.77571 5.29567,11.98387 10.41878,24.04487 15.81371,35.98385 0.92742,1.93215 2.40609,3.96632 4.70655,4.22568 2.37082,0.3556 5.16662,0.0696 6.75656,-1.94464 2.37573,-2.99003 3.45244,-6.74169 5.12908,-10.12357 0.79017,-1.89146 1.79134,-3.7324 2.43144,-5.66336 0.0452,-3.77076 -0.18461,-7.63068 1.07844,-11.25496 1.29542,-4.77121 4.57718,-8.77002 8.71133,-11.39131 1.33263,-1.19112 1.67235,-3.084 2.49557,-4.60754 1.05088,-2.09468 1.85756,-4.6071 3.93182,-5.93842 2.084972,-1.17904 4.570023,-0.98752 6.83195,-0.55484 1.296803,0.31517 2.677913,-0.10472 3.667671,-0.96016 0.194174,-0.79163 -1.076468,-0.7657 -1.247494,-1.47823 -0.3571,-0.95532 -0.217951,-2.09793 0.504324,-2.85311 0.04538,-0.72943 -1.073911,-0.80122 -1.645858,-0.90617 -5.421951,-0.23305 -10.838933,0.33806 -16.260853,0.25716 -4.59135,0.0473 -9.16217,-0.21161 -13.74445,-0.39641 z"
   style="fill:#006699;fill-opacity:1;stroke:none;stroke-opacity:1" /><g
   aria-label="WIR ÜBERSETZEN LITERATUR"
   style="font-style:normal;font-variant:normal;font-weight:normal;font-stretch:normal;line-height:0%;font-family:'Open Sans';-inkscape-font-specification:'Open Sans, Normal';text-align:start;letter-spacing:0px;word-spacing:0px;writing-mode:lr-tb;text-anchor:start;fill:#ffffff;fill-opacity:1;stroke:none;stroke-width:1px;stroke-linecap:butt;stroke-linejoin:miter;stroke-opacity:1;filter:url(#filter5345)"
   id="text4174"><path
     d="m 187.1768,71.275955 h -2.29687 l -4.0332,-13.384765 q -0.28711,-0.888672 -0.64258,-2.242188 -0.35547,-1.353516 -0.36914,-1.626953 -0.30078,1.804687 -0.95703,3.951172 l -3.91016,13.302734 h -2.29688 l -5.31836,-19.988281 h 2.46094 l 3.15821,12.345703 q 0.65625,2.597656 0.95703,4.703125 0.36914,-2.501953 1.09375,-4.894531 l 3.58203,-12.154297 h 2.46094 l 3.75976,12.263672 q 0.65625,2.11914 1.10742,4.785156 0.25977,-1.941406 0.98438,-4.730469 l 3.14453,-12.318359 h 2.46094 z"
     style="font-style:normal;font-variant:normal;font-weight:normal;font-stretch:normal;font-size:28px;line-height:125%;font-family:'Open Sans';-inkscape-font-specification:'Open Sans, Normal';font-variant-ligatures:normal;font-variant-caps:normal;font-variant-numeric:normal;font-feature-settings:normal;text-align:start;letter-spacing:0px;writing-mode:lr-tb;text-anchor:start;fill:#ffffff;fill-opacity:1"
     id="path5394" /><path
     d="M 195.65337,71.275955 V 51.287674 h 2.32421 v 19.988281 z"
     style="font-style:normal;font-variant:normal;font-weight:normal;font-stretch:normal;font-size:28px;line-height:125%;font-family:'Open Sans';-inkscape-font-specification:'Open Sans, Normal';font-variant-ligatures:normal;font-variant-caps:normal;font-variant-numeric:normal;font-feature-settings:normal;text-align:start;letter-spacing:0px;writing-mode:lr-tb;text-anchor:start;fill:#ffffff;fill-opacity:1"
     id="path5396" /><path
     d="m 205.7979,62.963455 v 8.3125 h -2.32422 V 51.287674 h 5.48242 q 3.67773,0 5.42773,1.408203 1.76368,1.408203 1.76368,4.238281 0,3.964844 -4.01953,5.359375 l 5.42773,8.982422 h -2.74805 l -4.83984,-8.3125 z m 0,-1.996094 h 3.18554 q 2.46094,0 3.60938,-0.970703 1.14844,-0.984375 1.14844,-2.939453 0,-1.982422 -1.17578,-2.857422 -1.16211,-0.875 -3.7461,-0.875 h -3.02148 z"
     style="font-style:normal;font-variant:normal;font-weight:normal;font-stretch:normal;font-size:28px;line-height:125%;font-family:'Open Sans';-inkscape-font-specification:'Open Sans, Normal';font-variant-ligatures:normal;font-variant-caps:normal;font-variant-numeric:normal;font-feature-settings:normal;text-align:start;letter-spacing:0px;writing-mode:lr-tb;text-anchor:start;fill:#ffffff;fill-opacity:1"
     id="path5398" /><path
     d="m 243.1768,51.287674 v 12.933594 q 0,3.417968 -2.06445,5.373047 -2.06445,1.955078 -5.67383,1.955078 -3.60937,0 -5.59179,-1.96875 -1.96875,-1.96875 -1.96875,-5.414063 V 51.287674 h 2.32421 v 13.042969 q 0,2.501953 1.36719,3.841797 1.36719,1.339843 4.01953,1.339843 2.5293,0 3.89649,-1.339843 1.36718,-1.353516 1.36718,-3.869141 V 51.287674 Z M 231.63774,47.60994 q 0,-0.710938 0.35547,-1.025391 0.36914,-0.314453 0.875,-0.314453 0.51953,0 0.88867,0.314453 0.38281,0.314453 0.38281,1.025391 0,0.683593 -0.38281,1.02539 -0.36914,0.328125 -0.88867,0.328125 -0.50586,0 -0.875,-0.328125 -0.35547,-0.341797 -0.35547,-1.02539 z m 5.20899,0 q 0,-0.710938 0.35546,-1.025391 0.36914,-0.314453 0.875,-0.314453 0.50586,0 0.875,0.314453 0.38282,0.314453 0.38282,1.025391 0,0.683593 -0.38282,1.02539 -0.36914,0.328125 -0.875,0.328125 -0.50586,0 -0.875,-0.328125 -0.35546,-0.341797 -0.35546,-1.02539 z"
     style="font-style:normal;font-variant:normal;font-weight:normal;font-stretch:normal;font-size:28px;line-height:125%;font-family:'Open Sans';-inkscape-font-specification:'Open Sans, Normal';font-variant-ligatures:normal;font-variant-caps:normal;font-variant-numeric:normal;font-feature-settings:normal;text-align:start;letter-spacing:0px;writing-mode:lr-tb;text-anchor:start;fill:#ffffff;fill-opacity:1"
     id="path5400" /><path
     d="m 248.48149,51.287674 h 5.64649 q 3.97851,0 5.75585,1.189453 1.77735,1.189453 1.77735,3.759766 0,1.777343 -0.99805,2.939453 -0.98437,1.148437 -2.88476,1.490234 v 0.136719 q 4.55273,0.779297 4.55273,4.785156 0,2.679688 -1.81836,4.183594 -1.80469,1.503906 -5.05859,1.503906 h -6.97266 z m 2.32422,8.558594 h 3.82812 q 2.46094,0 3.54102,-0.765625 1.08008,-0.779297 1.08008,-2.611328 0,-1.681641 -1.20313,-2.419922 -1.20312,-0.751953 -3.82812,-0.751953 h -3.41797 z m 0,1.96875 v 7.478515 h 4.16992 q 2.41992,0 3.63672,-0.929687 1.23047,-0.94336 1.23047,-2.939453 0,-1.859375 -1.25781,-2.734375 -1.24414,-0.875 -3.80078,-0.875 z"
     style="font-style:normal;font-variant:normal;font-weight:normal;font-stretch:normal;font-size:28px;line-height:125%;font-family:'Open Sans';-inkscape-font-specification:'Open Sans, Normal';font-variant-ligatures:normal;font-variant-caps:normal;font-variant-numeric:normal;font-feature-settings:normal;text-align:start;letter-spacing:0px;writing-mode:lr-tb;text-anchor:start;fill:#ffffff;fill-opacity:1"
     id="path5402" /><path
     d="M 277.78032,71.275955 H 266.63774 V 51.287674 h 11.14258 v 2.064453 h -8.81836 v 6.439453 h 8.28516 v 2.050781 h -8.28516 v 7.355469 h 8.81836 z"
     style="font-style:normal;font-variant:normal;font-weight:normal;font-stretch:normal;font-size:28px;line-height:125%;font-family:'Open Sans';-inkscape-font-specification:'Open Sans, Normal';font-variant-ligatures:normal;font-variant-caps:normal;font-variant-numeric:normal;font-feature-settings:normal;text-align:start;letter-spacing:0px;writing-mode:lr-tb;text-anchor:start;fill:#ffffff;fill-opacity:1"
     id="path5404" /><path
     d="m 284.5479,62.963455 v 8.3125 h -2.32422 V 51.287674 h 5.48242 q 3.67773,0 5.42773,1.408203 1.76368,1.408203 1.76368,4.238281 0,3.964844 -4.01953,5.359375 l 5.42773,8.982422 h -2.74805 l -4.83984,-8.3125 z m 0,-1.996094 h 3.18554 q 2.46094,0 3.60938,-0.970703 1.14844,-0.984375 1.14844,-2.939453 0,-1.982422 -1.17578,-2.857422 -1.16211,-0.875 -3.7461,-0.875 h -3.02148 z"
     style="font-style:normal;font-variant:normal;font-weight:normal;font-stretch:normal;font-size:28px;line-height:125%;font-family:'Open Sans';-inkscape-font-specification:'Open Sans, Normal';font-variant-ligatures:normal;font-variant-caps:normal;font-variant-numeric:normal;font-feature-settings:normal;text-align:start;letter-spacing:0px;writing-mode:lr-tb;text-anchor:start;fill:#ffffff;fill-opacity:1"
     id="path5406" /><path
     d="m 310.83891,65.957596 q 0,2.638672 -1.91406,4.115234 -1.91406,1.476563 -5.19531,1.476563 -3.55469,0 -5.46875,-0.916016 V 68.39119 q 1.23047,0.519531 2.67969,0.820312 1.44921,0.300781 2.87109,0.300781 2.32422,0 3.5,-0.875 1.17578,-0.888672 1.17578,-2.460937 0,-1.039063 -0.42383,-1.695313 -0.41015,-0.669922 -1.39453,-1.230468 -0.9707,-0.560547 -2.9668,-1.271485 -2.78906,-0.998047 -3.99218,-2.365234 -1.18946,-1.367188 -1.18946,-3.56836 0,-2.310546 1.73633,-3.677734 1.73633,-1.367187 4.59375,-1.367187 2.98047,0 5.48242,1.09375 l -0.72461,2.023437 q -2.47461,-1.039062 -4.8125,-1.039062 -1.8457,0 -2.88476,0.792968 -1.03906,0.792969 -1.03906,2.201172 0,1.039063 0.38281,1.708985 0.38281,0.65625 1.28515,1.216796 0.91602,0.546875 2.78907,1.216797 3.14453,1.121094 4.32031,2.40625 1.18945,1.285157 1.18945,3.335938 z"
     style="font-style:normal;font-variant:normal;font-weight:normal;font-stretch:normal;font-size:28px;line-height:125%;font-family:'Open Sans';-inkscape-font-specification:'Open Sans, Normal';font-variant-ligatures:normal;font-variant-caps:normal;font-variant-numeric:normal;font-feature-settings:normal;text-align:start;letter-spacing:0px;writing-mode:lr-tb;text-anchor:start;fill:#ffffff;fill-opacity:1"
     id="path5408" /><path
     d="M 326.06938,71.275955 H 314.9268 V 51.287674 h 11.14258 v 2.064453 h -8.81836 v 6.439453 h 8.28516 v 2.050781 h -8.28516 v 7.355469 h 8.81836 z"
     style="font-style:normal;font-variant:normal;font-weight:normal;font-stretch:normal;font-size:28px;line-height:125%;font-family:'Open Sans';-inkscape-font-specification:'Open Sans, Normal';font-variant-ligatures:normal;font-variant-caps:normal;font-variant-numeric:normal;font-feature-settings:normal;text-align:start;letter-spacing:0px;writing-mode:lr-tb;text-anchor:start;fill:#ffffff;fill-opacity:1"
     id="path5410" /><path
     d="m 336.66508,71.275955 h -2.32421 V 53.352127 h -6.33008 v -2.064453 h 14.98437 v 2.064453 h -6.33008 z"
     style="font-style:normal;font-variant:normal;font-weight:normal;font-stretch:normal;font-size:28px;line-height:125%;font-family:'Open Sans';-inkscape-font-specification:'Open Sans, Normal';font-variant-ligatures:normal;font-variant-caps:normal;font-variant-numeric:normal;font-feature-settings:normal;text-align:start;letter-spacing:0px;writing-mode:lr-tb;text-anchor:start;fill:#ffffff;fill-opacity:1"
     id="path5412" /><path
     d="m 358.10258,71.275955 h -13.74023 v -1.818359 l 10.60938,-16.078125 h -10.28125 v -2.091797 h 13.11132 v 1.818359 l -10.60937,16.064453 h 10.91015 z"
     style="font-style:normal;font-variant:normal;font-weight:normal;font-stretch:normal;font-size:28px;line-height:125%;font-family:'Open Sans';-inkscape-font-specification:'Open Sans, Normal';font-variant-ligatures:normal;font-variant-caps:normal;font-variant-numeric:normal;font-feature-settings:normal;text-align:start;letter-spacing:0px;writing-mode:lr-tb;text-anchor:start;fill:#ffffff;fill-opacity:1"
     id="path5414" /><path
     d="M 373.10063,71.275955 H 361.95805 V 51.287674 h 11.14258 v 2.064453 h -8.81836 v 6.439453 h 8.28516 v 2.050781 h -8.28516 v 7.355469 h 8.81836 z"
     style="font-style:normal;font-variant:normal;font-weight:normal;font-stretch:normal;font-size:28px;line-height:125%;font-family:'Open Sans';-inkscape-font-specification:'Open Sans, Normal';font-variant-ligatures:normal;font-variant-caps:normal;font-variant-numeric:normal;font-feature-settings:normal;text-align:start;letter-spacing:0px;writing-mode:lr-tb;text-anchor:start;fill:#ffffff;fill-opacity:1"
     id="path5416" /><path
     d="m 393.15727,71.275955 h -2.65234 L 379.5811,54.500565 h -0.10937 q 0.21875,2.953125 0.21875,5.414062 v 11.361328 h -2.14649 V 51.287674 h 2.625 l 10.89649,16.707031 h 0.10937 q -0.0273,-0.36914 -0.12305,-2.365234 -0.0957,-2.009766 -0.0684,-2.871094 V 51.287674 h 2.17383 z"
     style="font-style:normal;font-variant:normal;font-weight:normal;font-stretch:normal;font-size:28px;line-height:125%;font-family:'Open Sans';-inkscape-font-specification:'Open Sans, Normal';font-variant-ligatures:normal;font-variant-caps:normal;font-variant-numeric:normal;font-feature-settings:normal;text-align:start;letter-spacing:0px;writing-mode:lr-tb;text-anchor:start;fill:#ffffff;fill-opacity:1"
     id="path5418" /><path
     d="M 405.9268,71.275955 V 51.287674 h 2.32422 v 17.882812 h 8.81836 v 2.105469 z"
     style="font-style:normal;font-variant:normal;font-weight:normal;font-stretch:normal;font-size:28px;line-height:125%;font-family:'Open Sans';-inkscape-font-specification:'Open Sans, Normal';font-variant-ligatures:normal;font-variant-caps:normal;font-variant-numeric:normal;font-feature-settings:normal;text-align:start;letter-spacing:0px;writing-mode:lr-tb;text-anchor:start;fill:#ffffff;fill-opacity:1"
     id="path5420" /><path
     d="M 420.47368,71.275955 V 51.287674 h 2.32422 v 19.988281 z"
     style="font-style:normal;font-variant:normal;font-weight:normal;font-stretch:normal;font-size:28px;line-height:125%;font-family:'Open Sans';-inkscape-font-specification:'Open Sans, Normal';font-variant-ligatures:normal;font-variant-caps:normal;font-variant-numeric:normal;font-feature-settings:normal;text-align:start;letter-spacing:0px;writing-mode:lr-tb;text-anchor:start;fill:#ffffff;fill-opacity:1"
     id="path5422" /><path
     d="m 434.44633,71.275955 h -2.32421 V 53.352127 h -6.33008 v -2.064453 h 14.98437 v 2.064453 h -6.33008 z"
     style="font-style:normal;font-variant:normal;font-weight:normal;font-stretch:normal;font-size:28px;line-height:125%;font-family:'Open Sans';-inkscape-font-specification:'Open Sans, Normal';font-variant-ligatures:normal;font-variant-caps:normal;font-variant-numeric:normal;font-feature-settings:normal;text-align:start;letter-spacing:0px;writing-mode:lr-tb;text-anchor:start;fill:#ffffff;fill-opacity:1"
     id="path5424" /><path
     d="M 454.91313,71.275955 H 443.77055 V 51.287674 h 11.14258 v 2.064453 h -8.81836 v 6.439453 h 8.28516 v 2.050781 h -8.28516 v 7.355469 h 8.81836 z"
     style="font-style:normal;font-variant:normal;font-weight:normal;font-stretch:normal;font-size:28px;line-height:125%;font-family:'Open Sans';-inkscape-font-specification:'Open Sans, Normal';font-variant-ligatures:normal;font-variant-caps:normal;font-variant-numeric:normal;font-feature-settings:normal;text-align:start;letter-spacing:0px;writing-mode:lr-tb;text-anchor:start;fill:#ffffff;fill-opacity:1"
     id="path5426" /><path
     d="m 461.68071,62.963455 v 8.3125 h -2.32422 V 51.287674 h 5.48242 q 3.67774,0 5.42774,1.408203 1.76367,1.408203 1.76367,4.238281 0,3.964844 -4.01953,5.359375 l 5.42773,8.982422 h -2.74804 l -4.83985,-8.3125 z m 0,-1.996094 h 3.18555 q 2.46093,0 3.60937,-0.970703 1.14844,-0.984375 1.14844,-2.939453 0,-1.982422 -1.17578,-2.857422 -1.16211,-0.875 -3.7461,-0.875 h -3.02148 z"
     style="font-style:normal;font-variant:normal;font-weight:normal;font-stretch:normal;font-size:28px;line-height:125%;font-family:'Open Sans';-inkscape-font-specification:'Open Sans, Normal';font-variant-ligatures:normal;font-variant-caps:normal;font-variant-numeric:normal;font-feature-settings:normal;text-align:start;letter-spacing:0px;writing-mode:lr-tb;text-anchor:start;fill:#ffffff;fill-opacity:1"
     id="path5428" /><path
     d="m 489.25688,71.275955 -2.48828,-6.357422 h -8.01172 l -2.46094,6.357422 h -2.35156 l 7.90235,-20.070312 h 1.95507 l 7.86133,20.070312 z m -3.21289,-8.449219 -2.32422,-6.193359 q -0.45117,-1.175781 -0.92969,-2.884766 -0.30078,1.3125 -0.86132,2.884766 l -2.35157,6.193359 z"
     style="font-style:normal;font-variant:normal;font-weight:normal;font-stretch:normal;font-size:28px;line-height:125%;font-family:'Open Sans';-inkscape-font-specification:'Open Sans, Normal';font-variant-ligatures:normal;font-variant-caps:normal;font-variant-numeric:normal;font-feature-settings:normal;text-align:start;letter-spacing:0px;writing-mode:lr-tb;text-anchor:start;fill:#ffffff;fill-opacity:1"
     id="path5430" /><path
     d="M 500.56352,71.275955 H 498.2393 V 53.352127 h -6.33007 v -2.064453 h 14.98437 v 2.064453 h -6.33008 z"
     style="font-style:normal;font-variant:normal;font-weight:normal;font-stretch:normal;font-size:28px;line-height:125%;font-family:'Open Sans';-inkscape-font-specification:'Open Sans, Normal';font-variant-ligatures:normal;font-variant-caps:normal;font-variant-numeric:normal;font-feature-settings:normal;text-align:start;letter-spacing:0px;writing-mode:lr-tb;text-anchor:start;fill:#ffffff;fill-opacity:1"
     id="path5432" /><path
     d="m 524.98149,51.287674 v 12.933594 q 0,3.417968 -2.06445,5.373047 -2.06446,1.955078 -5.67383,1.955078 -3.60938,0 -5.5918,-1.96875 -1.96875,-1.96875 -1.96875,-5.414063 V 51.287674 h 2.32422 v 13.042969 q 0,2.501953 1.36719,3.841797 1.36719,1.339843 4.01953,1.339843 2.5293,0 3.89648,-1.339843 1.36719,-1.353516 1.36719,-3.869141 V 51.287674 Z"
     style="font-style:normal;font-variant:normal;font-weight:normal;font-stretch:normal;font-size:28px;line-height:125%;font-family:'Open Sans';-inkscape-font-specification:'Open Sans, Normal';font-variant-ligatures:normal;font-variant-caps:normal;font-variant-numeric:normal;font-feature-settings:normal;text-align:start;letter-spacing:0px;writing-mode:lr-tb;text-anchor:start;fill:#ffffff;fill-opacity:1"
     id="path5434" /><path
     d="m 532.6104,62.963455 v 8.3125 h -2.32422 V 51.287674 h 5.48242 q 3.67773,0 5.42773,1.408203 1.76368,1.408203 1.76368,4.238281 0,3.964844 -4.01953,5.359375 l 5.42773,8.982422 h -2.74805 l -4.83984,-8.3125 z m 0,-1.996094 h 3.18554 q 2.46094,0 3.60938,-0.970703 1.14844,-0.984375 1.14844,-2.939453 0,-1.982422 -1.17578,-2.857422 -1.16211,-0.875 -3.7461,-0.875 h -3.02148 z"
     style="font-style:normal;font-variant:normal;font-weight:normal;font-stretch:normal;font-size:28px;line-height:125%;font-family:'Open Sans';-inkscape-font-specification:'Open Sans, Normal';font-variant-ligatures:normal;font-variant-caps:normal;font-variant-numeric:normal;font-feature-settings:normal;text-align:start;letter-spacing:0px;writing-mode:lr-tb;text-anchor:start;fill:#ffffff;fill-opacity:1"
     id="path5436" /></g>


<text
   xml:space="preserve"
   style="font-style:normal;font-variant:normal;font-weight:normal;font-stretch:normal;line-height:0%;font-family:'Open Sans';-inkscape-font-specification:'Open Sans, Normal';text-align:start;letter-spacing:0px;word-spacing:0px;writing-mode:lr-tb;text-anchor:start;fill:#000000;fill-opacity:1;stroke:none;stroke-width:1px;stroke-linecap:butt;stroke-linejoin:miter;stroke-opacity:1"
   x="242.27013"
   y="117.2999"
   id="text3378"><tspan
     sodipodi:role="line"
     x="242.27013"
     y="117.2999"
     id="tspan3382"
     style="font-size:12px;line-height:1.25">Slogan vor dem Speichern für Website in Pfad</tspan><tspan
     sodipodi:role="line"
     x="242.27013"
     y="132.2999"
     id="tspan3390"
     style="font-size:12px;line-height:1.25">umwandeln (sonst Schriftartproblem)!</tspan></text>


<g
   aria-label="WIR ÜBERSETZEN LITERATUR"
   style="font-style:normal;font-weight:normal;font-size:40px;line-height:1.25;font-family:sans-serif;letter-spacing:0px;word-spacing:0px;fill:#000000;fill-opacity:1;stroke:none"
   id="text4354"><path
     d="m 187.74202,71.801903 h -2.29688 l -4.0332,-13.384766 q -0.28711,-0.888672 -0.64258,-2.242187 -0.35547,-1.353516 -0.36914,-1.626953 -0.30078,1.804687 -0.95703,3.951171 l -3.91015,13.302735 h -2.29688 L 167.9178,51.813622 h 2.46094 l 3.1582,12.345703 q 0.65625,2.597656 0.95703,4.703125 0.36914,-2.501953 1.09375,-4.894532 l 3.58203,-12.154296 h 2.46094 l 3.75977,12.263671 q 0.65625,2.119141 1.10742,4.785157 0.25976,-1.941407 0.98437,-4.730469 l 3.14454,-12.318359 h 2.46093 z"
     style="font-style:normal;font-variant:normal;font-weight:normal;font-stretch:normal;font-size:28px;font-family:'Open Sans';-inkscape-font-specification:'Open Sans, Normal';font-variant-ligatures:normal;font-variant-caps:normal;font-variant-numeric:normal;font-feature-settings:normal;text-align:start;writing-mode:lr-tb;text-anchor:start;fill:#000000"
     id="path5349" /><path
     d="M 196.21858,71.801903 V 51.813622 h 2.32422 v 19.988281 z"
     style="font-style:normal;font-variant:normal;font-weight:normal;font-stretch:normal;font-size:28px;font-family:'Open Sans';-inkscape-font-specification:'Open Sans, Normal';font-variant-ligatures:normal;font-variant-caps:normal;font-variant-numeric:normal;font-feature-settings:normal;text-align:start;writing-mode:lr-tb;text-anchor:start;fill:#000000"
     id="path5351" /><path
     d="m 206.36311,63.489403 v 8.3125 h -2.32422 V 51.813622 h 5.48243 q 3.67773,0 5.42773,1.408203 1.76367,1.408203 1.76367,4.238281 0,3.964844 -4.01953,5.359375 l 5.42774,8.982422 h -2.74805 l -4.83984,-8.3125 z m 0,-1.996094 h 3.18555 q 2.46094,0 3.60938,-0.970703 1.14843,-0.984375 1.14843,-2.939453 0,-1.982422 -1.17578,-2.857422 -1.16211,-0.875 -3.74609,-0.875 h -3.02149 z"
     style="font-style:normal;font-variant:normal;font-weight:normal;font-stretch:normal;font-size:28px;font-family:'Open Sans';-inkscape-font-specification:'Open Sans, Normal';font-variant-ligatures:normal;font-variant-caps:normal;font-variant-numeric:normal;font-feature-settings:normal;text-align:start;writing-mode:lr-tb;text-anchor:start;fill:#000000"
     id="path5353" /><path
     d="m 243.74202,51.813622 v 12.933593 q 0,3.417969 -2.06445,5.373047 -2.06446,1.955078 -5.67383,1.955078 -3.60938,0 -5.5918,-1.96875 -1.96875,-1.96875 -1.96875,-5.414062 V 51.813622 h 2.32422 V 64.85659 q 0,2.501953 1.36719,3.841797 1.36719,1.339844 4.01953,1.339844 2.5293,0 3.89648,-1.339844 1.36719,-1.353515 1.36719,-3.86914 V 51.813622 Z m -11.53906,-3.677735 q 0,-0.710937 0.35547,-1.02539 0.36914,-0.314454 0.875,-0.314454 0.51953,0 0.88867,0.314454 0.38281,0.314453 0.38281,1.02539 0,0.683594 -0.38281,1.025391 -0.36914,0.328125 -0.88867,0.328125 -0.50586,0 -0.875,-0.328125 -0.35547,-0.341797 -0.35547,-1.025391 z m 5.20898,0 q 0,-0.710937 0.35547,-1.02539 0.36914,-0.314454 0.875,-0.314454 0.50586,0 0.875,0.314454 0.38281,0.314453 0.38281,1.02539 0,0.683594 -0.38281,1.025391 -0.36914,0.328125 -0.875,0.328125 -0.50586,0 -0.875,-0.328125 -0.35547,-0.341797 -0.35547,-1.025391 z"
     style="font-style:normal;font-variant:normal;font-weight:normal;font-stretch:normal;font-size:28px;font-family:'Open Sans';-inkscape-font-specification:'Open Sans, Normal';font-variant-ligatures:normal;font-variant-caps:normal;font-variant-numeric:normal;font-feature-settings:normal;text-align:start;writing-mode:lr-tb;text-anchor:start;fill:#000000"
     id="path5355" /><path
     d="m 249.04671,51.813622 h 5.64648 q 3.97852,0 5.75586,1.189453 1.77734,1.189453 1.77734,3.759765 0,1.777344 -0.99804,2.939453 -0.98438,1.148438 -2.88477,1.490235 v 0.136719 q 4.55274,0.779296 4.55274,4.785156 0,2.679687 -1.81836,4.183594 -1.80469,1.503906 -5.0586,1.503906 h -6.97265 z m 2.32422,8.558593 h 3.82812 q 2.46094,0 3.54102,-0.765625 1.08007,-0.779297 1.08007,-2.611328 0,-1.68164 -1.20312,-2.419922 -1.20313,-0.751953 -3.82813,-0.751953 h -3.41796 z m 0,1.96875 v 7.478516 h 4.16992 q 2.41992,0 3.63672,-0.929688 1.23047,-0.943359 1.23047,-2.939453 0,-1.859375 -1.25782,-2.734375 -1.24414,-0.875 -3.80078,-0.875 z"
     style="font-style:normal;font-variant:normal;font-weight:normal;font-stretch:normal;font-size:28px;font-family:'Open Sans';-inkscape-font-specification:'Open Sans, Normal';font-variant-ligatures:normal;font-variant-caps:normal;font-variant-numeric:normal;font-feature-settings:normal;text-align:start;writing-mode:lr-tb;text-anchor:start;fill:#000000"
     id="path5357" /><path
     d="M 278.34554,71.801903 H 267.20296 V 51.813622 h 11.14258 v 2.064453 h -8.81836 v 6.439453 h 8.28515 v 2.050781 h -8.28515 v 7.355469 h 8.81836 z"
     style="font-style:normal;font-variant:normal;font-weight:normal;font-stretch:normal;font-size:28px;font-family:'Open Sans';-inkscape-font-specification:'Open Sans, Normal';font-variant-ligatures:normal;font-variant-caps:normal;font-variant-numeric:normal;font-feature-settings:normal;text-align:start;writing-mode:lr-tb;text-anchor:start;fill:#000000"
     id="path5359" /><path
     d="m 285.11311,63.489403 v 8.3125 h -2.32422 V 51.813622 h 5.48243 q 3.67773,0 5.42773,1.408203 1.76367,1.408203 1.76367,4.238281 0,3.964844 -4.01953,5.359375 l 5.42774,8.982422 h -2.74805 l -4.83984,-8.3125 z m 0,-1.996094 h 3.18555 q 2.46094,0 3.60938,-0.970703 1.14843,-0.984375 1.14843,-2.939453 0,-1.982422 -1.17578,-2.857422 -1.16211,-0.875 -3.74609,-0.875 h -3.02149 z"
     style="font-style:normal;font-variant:normal;font-weight:normal;font-stretch:normal;font-size:28px;font-family:'Open Sans';-inkscape-font-specification:'Open Sans, Normal';font-variant-ligatures:normal;font-variant-caps:normal;font-variant-numeric:normal;font-feature-settings:normal;text-align:start;writing-mode:lr-tb;text-anchor:start;fill:#000000"
     id="path5361" /><path
     d="m 311.40413,66.483543 q 0,2.638672 -1.91406,4.115235 -1.91407,1.476562 -5.19532,1.476562 -3.55468,0 -5.46875,-0.916015 v -2.242188 q 1.23047,0.519531 2.67969,0.820313 1.44922,0.300781 2.8711,0.300781 2.32421,0 3.5,-0.875 1.17578,-0.888672 1.17578,-2.460938 0,-1.039062 -0.42383,-1.695312 -0.41016,-0.669922 -1.39453,-1.230469 -0.97071,-0.560547 -2.9668,-1.271484 -2.78906,-0.998047 -3.99219,-2.365235 -1.18945,-1.367187 -1.18945,-3.568359 0,-2.310547 1.73633,-3.677734 1.73633,-1.367188 4.59375,-1.367188 2.98047,0 5.48242,1.09375 l -0.72461,2.023438 q -2.47461,-1.039063 -4.8125,-1.039063 -1.8457,0 -2.88477,0.792969 -1.03906,0.792969 -1.03906,2.201172 0,1.039062 0.38281,1.708984 0.38282,0.65625 1.28516,1.216797 0.91602,0.546875 2.78906,1.216797 3.14453,1.121094 4.32032,2.40625 1.18945,1.285156 1.18945,3.335937 z"
     style="font-style:normal;font-variant:normal;font-weight:normal;font-stretch:normal;font-size:28px;font-family:'Open Sans';-inkscape-font-specification:'Open Sans, Normal';font-variant-ligatures:normal;font-variant-caps:normal;font-variant-numeric:normal;font-feature-settings:normal;text-align:start;writing-mode:lr-tb;text-anchor:start;fill:#000000"
     id="path5363" /><path
     d="M 326.6346,71.801903 H 315.49202 V 51.813622 h 11.14258 v 2.064453 h -8.81836 v 6.439453 h 8.28515 v 2.050781 h -8.28515 v 7.355469 h 8.81836 z"
     style="font-style:normal;font-variant:normal;font-weight:normal;font-stretch:normal;font-size:28px;font-family:'Open Sans';-inkscape-font-specification:'Open Sans, Normal';font-variant-ligatures:normal;font-variant-caps:normal;font-variant-numeric:normal;font-feature-settings:normal;text-align:start;writing-mode:lr-tb;text-anchor:start;fill:#000000"
     id="path5365" /><path
     d="m 337.2303,71.801903 h -2.32422 V 53.878075 H 328.576 v -2.064453 h 14.98438 v 2.064453 h -6.33008 z"
     style="font-style:normal;font-variant:normal;font-weight:normal;font-stretch:normal;font-size:28px;font-family:'Open Sans';-inkscape-font-specification:'Open Sans, Normal';font-variant-ligatures:normal;font-variant-caps:normal;font-variant-numeric:normal;font-feature-settings:normal;text-align:start;writing-mode:lr-tb;text-anchor:start;fill:#000000"
     id="path5367" /><path
     d="m 358.6678,71.801903 h -13.74023 v -1.81836 l 10.60937,-16.078125 h -10.28125 v -2.091796 h 13.11133 v 1.818359 l -10.60938,16.064453 h 10.91016 z"
     style="font-style:normal;font-variant:normal;font-weight:normal;font-stretch:normal;font-size:28px;font-family:'Open Sans';-inkscape-font-specification:'Open Sans, Normal';font-variant-ligatures:normal;font-variant-caps:normal;font-variant-numeric:normal;font-feature-settings:normal;text-align:start;writing-mode:lr-tb;text-anchor:start;fill:#000000"
     id="path5369" /><path
     d="M 373.66585,71.801903 H 362.52327 V 51.813622 h 11.14258 v 2.064453 h -8.81836 v 6.439453 h 8.28515 v 2.050781 h -8.28515 v 7.355469 h 8.81836 z"
     style="font-style:normal;font-variant:normal;font-weight:normal;font-stretch:normal;font-size:28px;font-family:'Open Sans';-inkscape-font-specification:'Open Sans, Normal';font-variant-ligatures:normal;font-variant-caps:normal;font-variant-numeric:normal;font-feature-settings:normal;text-align:start;writing-mode:lr-tb;text-anchor:start;fill:#000000"
     id="path5371" /><path
     d="m 393.72249,71.801903 h -2.65235 L 380.14632,55.026512 h -0.10938 q 0.21875,2.953125 0.21875,5.414063 v 11.361328 h -2.14648 V 51.813622 h 2.625 l 10.89648,16.707031 h 0.10938 q -0.0274,-0.369141 -0.12305,-2.365235 -0.0957,-2.009765 -0.0684,-2.871093 V 51.813622 h 2.17383 z"
     style="font-style:normal;font-variant:normal;font-weight:normal;font-stretch:normal;font-size:28px;font-family:'Open Sans';-inkscape-font-specification:'Open Sans, Normal';font-variant-ligatures:normal;font-variant-caps:normal;font-variant-numeric:normal;font-feature-settings:normal;text-align:start;writing-mode:lr-tb;text-anchor:start;fill:#000000"
     id="path5373" /><path
     d="M 406.49202,71.801903 V 51.813622 h 2.32422 v 17.882812 h 8.81836 v 2.105469 z"
     style="font-style:normal;font-variant:normal;font-weight:normal;font-stretch:normal;font-size:28px;font-family:'Open Sans';-inkscape-font-specification:'Open Sans, Normal';font-variant-ligatures:normal;font-variant-caps:normal;font-variant-numeric:normal;font-feature-settings:normal;text-align:start;writing-mode:lr-tb;text-anchor:start;fill:#000000"
     id="path5375" /><path
     d="M 421.03889,71.801903 V 51.813622 h 2.32422 v 19.988281 z"
     style="font-style:normal;font-variant:normal;font-weight:normal;font-stretch:normal;font-size:28px;font-family:'Open Sans';-inkscape-font-specification:'Open Sans, Normal';font-variant-ligatures:normal;font-variant-caps:normal;font-variant-numeric:normal;font-feature-settings:normal;text-align:start;writing-mode:lr-tb;text-anchor:start;fill:#000000"
     id="path5377" /><path
     d="m 435.01155,71.801903 h -2.32422 V 53.878075 h -6.33008 v -2.064453 h 14.98438 v 2.064453 h -6.33008 z"
     style="font-style:normal;font-variant:normal;font-weight:normal;font-stretch:normal;font-size:28px;font-family:'Open Sans';-inkscape-font-specification:'Open Sans, Normal';font-variant-ligatures:normal;font-variant-caps:normal;font-variant-numeric:normal;font-feature-settings:normal;text-align:start;writing-mode:lr-tb;text-anchor:start;fill:#000000"
     id="path5379" /><path
     d="M 455.47835,71.801903 H 444.33577 V 51.813622 h 11.14258 v 2.064453 h -8.81836 v 6.439453 h 8.28515 v 2.050781 h -8.28515 v 7.355469 h 8.81836 z"
     style="font-style:normal;font-variant:normal;font-weight:normal;font-stretch:normal;font-size:28px;font-family:'Open Sans';-inkscape-font-specification:'Open Sans, Normal';font-variant-ligatures:normal;font-variant-caps:normal;font-variant-numeric:normal;font-feature-settings:normal;text-align:start;writing-mode:lr-tb;text-anchor:start;fill:#000000"
     id="path5381" /><path
     d="m 462.24593,63.489403 v 8.3125 h -2.32422 V 51.813622 h 5.48242 q 3.67773,0 5.42773,1.408203 1.76368,1.408203 1.76368,4.238281 0,3.964844 -4.01954,5.359375 l 5.42774,8.982422 h -2.74805 l -4.83984,-8.3125 z m 0,-1.996094 h 3.18554 q 2.46094,0 3.60938,-0.970703 1.14844,-0.984375 1.14844,-2.939453 0,-1.982422 -1.17579,-2.857422 -1.16211,-0.875 -3.74609,-0.875 h -3.02148 z"
     style="font-style:normal;font-variant:normal;font-weight:normal;font-stretch:normal;font-size:28px;font-family:'Open Sans';-inkscape-font-specification:'Open Sans, Normal';font-variant-ligatures:normal;font-variant-caps:normal;font-variant-numeric:normal;font-feature-settings:normal;text-align:start;writing-mode:lr-tb;text-anchor:start;fill:#000000"
     id="path5383" /><path
     d="m 489.8221,71.801903 -2.48828,-6.357422 h -8.01172 l -2.46094,6.357422 h -2.35156 l 7.90234,-20.070313 h 1.95508 l 7.86133,20.070313 z m -3.21289,-8.449219 -2.32422,-6.193359 q -0.45117,-1.175782 -0.92969,-2.884766 -0.30078,1.3125 -0.86133,2.884766 l -2.35156,6.193359 z"
     style="font-style:normal;font-variant:normal;font-weight:normal;font-stretch:normal;font-size:28px;font-family:'Open Sans';-inkscape-font-specification:'Open Sans, Normal';font-variant-ligatures:normal;font-variant-caps:normal;font-variant-numeric:normal;font-feature-settings:normal;text-align:start;writing-mode:lr-tb;text-anchor:start;fill:#000000"
     id="path5385" /><path
     d="m 501.12874,71.801903 h -2.32422 V 53.878075 h -6.33008 v -2.064453 h 14.98438 v 2.064453 h -6.33008 z"
     style="font-style:normal;font-variant:normal;font-weight:normal;font-stretch:normal;font-size:28px;font-family:'Open Sans';-inkscape-font-specification:'Open Sans, Normal';font-variant-ligatures:normal;font-variant-caps:normal;font-variant-numeric:normal;font-feature-settings:normal;text-align:start;writing-mode:lr-tb;text-anchor:start;fill:#000000"
     id="path5387" /><path
     d="m 525.54671,51.813622 v 12.933593 q 0,3.417969 -2.06446,5.373047 -2.06445,1.955078 -5.67382,1.955078 -3.60938,0 -5.5918,-1.96875 -1.96875,-1.96875 -1.96875,-5.414062 V 51.813622 h 2.32422 V 64.85659 q 0,2.501953 1.36719,3.841797 1.36718,1.339844 4.01953,1.339844 2.52929,0 3.89648,-1.339844 1.36719,-1.353515 1.36719,-3.86914 V 51.813622 Z"
     style="font-style:normal;font-variant:normal;font-weight:normal;font-stretch:normal;font-size:28px;font-family:'Open Sans';-inkscape-font-specification:'Open Sans, Normal';font-variant-ligatures:normal;font-variant-caps:normal;font-variant-numeric:normal;font-feature-settings:normal;text-align:start;writing-mode:lr-tb;text-anchor:start;fill:#000000"
     id="path5389" /><path
     d="m 533.17561,63.489403 v 8.3125 h -2.32422 V 51.813622 h 5.48243 q 3.67773,0 5.42773,1.408203 1.76367,1.408203 1.76367,4.238281 0,3.964844 -4.01953,5.359375 l 5.42774,8.982422 h -2.74805 l -4.83984,-8.3125 z m 0,-1.996094 h 3.18555 q 2.46094,0 3.60938,-0.970703 1.14843,-0.984375 1.14843,-2.939453 0,-1.982422 -1.17578,-2.857422 -1.16211,-0.875 -3.74609,-0.875 h -3.02149 z"
     style="font-style:normal;font-variant:normal;font-weight:normal;font-stretch:normal;font-size:28px;font-family:'Open Sans';-inkscape-font-specification:'Open Sans, Normal';font-variant-ligatures:normal;font-variant-caps:normal;font-variant-numeric:normal;font-feature-settings:normal;text-align:start;writing-mode:lr-tb;text-anchor:start;fill:#000000"
     id="path5391" /></g></svg>